<svg preserveAspectRatio="none" overflow="visible" style="display: block;" width="20" height="20" viewBox="0 0 20 20" fill="none" xmlns="http://www.w3.org/2000/svg">
<g id="logout">
<path id="Vector" d="M14 1.66667H11.8333C9.16667 1.66667 7.5 3.33333 7.5 6V9.375H12.7083C13.05 9.375 13.3333 9.65833 13.3333 10C13.3333 10.3417 13.05 10.625 12.7083 10.625H7.5V14C7.5 16.6667 9.16667 18.3333 11.8333 18.3333H13.9917C16.6583 18.3333 18.325 16.6667 18.325 14V6C18.3333 3.33333 16.6667 1.66667 14 1.66667Z" fill="#8A94A6"/>
<path id="Vector_2" d="M3.8 9.375L5.525 7.65C5.65 7.525 5.70833 7.36667 5.70833 7.20833C5.70833 7.05 5.65 6.88333 5.525 6.76667C5.28333 6.525 4.88333 6.525 4.64167 6.76667L1.85 9.55833C1.60833 9.8 1.60833 10.2 1.85 10.4417L4.64167 13.2333C4.88333 13.475 5.28333 13.475 5.525 13.2333C5.76667 12.9917 5.76667 12.5917 5.525 12.35L3.8 10.625H7.5V9.375H3.8V9.375Z" fill="#8A94A6"/>
<path id="Vector_3" opacity="0" d="M0 20L20 20L20 0L0 0L0 20Z" fill="#8A94A6"/>
</g>
</svg>
