<svg preserveAspectRatio="none" overflow="visible" style="display: block;" width="24" height="24" viewBox="0 0 24 24" fill="none" xmlns="http://www.w3.org/2000/svg">
<g id="SVG">
<path id="Vector" d="M16.8893 22.05C17.8648 22.05 18.6556 21.31 18.6556 20.3972C18.6556 19.4844 17.8648 18.7444 16.8893 18.7444C15.9139 18.7444 15.1232 19.4844 15.1232 20.3972C15.1232 21.31 15.9139 22.05 16.8893 22.05Z" fill="white"/>
<path id="Vector_2" d="M8.81533 22.05C9.79067 22.05 10.5815 21.31 10.5815 20.3972C10.5815 19.4844 9.79067 18.7444 8.81533 18.7444C7.83987 18.7444 7.04907 19.4844 7.04907 20.3972C7.04907 21.31 7.83987 22.05 8.81533 22.05Z" fill="white"/>
<path id="Vector_3" d="M5.37373 4.52107L5.17187 6.83493C5.13147 7.27893 5.50493 7.6472 5.9792 7.6472H21.4311C21.8549 7.6472 22.2081 7.34493 22.2384 6.94827C22.3696 5.27667 21.0071 3.91667 19.2208 3.91667H6.81693C6.716 3.50107 6.51413 3.1044 6.20133 2.77387C5.69667 2.27333 4.99013 1.98053 4.26347 1.98053H2.50747C2.0936 1.98053 1.7504 2.3016 1.7504 2.68893C1.7504 3.07613 2.0936 3.3972 2.50747 3.3972H4.26347C4.5764 3.3972 4.86907 3.52 5.08107 3.72773C5.29293 3.94493 5.39387 4.22827 5.37373 4.52107Z" fill="white"/>
<path id="Vector_4" d="M21.1887 9.06328H5.70673C5.28287 9.06328 4.93967 9.36555 4.89927 9.75275L4.53593 13.8611C4.3946 15.4761 5.747 16.855 7.47287 16.855H18.6958C20.2098 16.855 21.5419 15.6933 21.653 14.2766L21.9861 9.86608C22.0265 9.43168 21.6631 9.06328 21.1887 9.06328Z" fill="white"/>
</g>
</svg>
